<svg xmlns="http://www.w3.org/2000/svg" width="150.956" height="56.413" viewBox="0 0 150.956 56.413"><g transform="translate(-12813.021 -1222.793)"><path d="M49.319,29.552q-1.332,5.322-2.669,10.665a12.566,12.566,0,0,0-4.774-.685q-8.366-.019-16.732,0h-.7c0-.815-.011-1.561.01-2.307a.627.627,0,0,1,.219-.377c1.236-1.126,2.471-2.251,3.73-3.349a1.142,1.142,0,0,1,.7-.2c3.923-.012,7.846.014,11.769-.021A28,28,0,0,0,44.634,33a5.792,5.792,0,0,0,4.427-3.2c.055-.1.117-.2.175-.3l.083.055" transform="translate(12808.795 1217.692)"/><path d="M37.173,1.566A34.051,34.051,0,0,1,40.58.811a10.4,10.4,0,0,1,8.048,2.077c3.026,2.4,4.948,7.832,1.5,12.183a18.991,18.991,0,0,1-5.75,4.86c-2.909,1.6-5.915,3.034-8.886,4.526a16.175,16.175,0,0,1-2.355.968c.268-.2.537-.4.8-.6a41.063,41.063,0,0,0,8.121-7.749,13.98,13.98,0,0,0,3.06-6.5c.38-2.644-.831-6.93-4.487-8.3a8.664,8.664,0,0,0-3.42-.5l-.042-.211" transform="translate(12807.29 1222.671)"/><path d="M16.054,11.742c-.593,1.277-1.215,2.542-1.774,3.834a43.992,43.992,0,0,0-3,11.541c-.312,2.241-.663,4.482-1.147,6.691a3.755,3.755,0,0,1-2.98,3.045,3.931,3.931,0,0,1-4.713-4.041,13.921,13.921,0,0,1,1.47-5.233,42.792,42.792,0,0,1,6.441-9.68c1.808-2.129,3.722-4.167,5.588-6.247l.111.088" transform="translate(12812.6 1220.778)"/><path d="M2,.782a16.03,16.03,0,0,0,4.563.491q7.5.015,14.995,0h.71c-.121.176-.19.3-.279.4-1.554,1.858-3.1,3.72-4.678,5.559a1.015,1.015,0,0,1-.7.282c-3.581.022-7.165.011-10.746.033a12.381,12.381,0,0,0-1.982.194A4.7,4.7,0,0,0,.533,10.041,3.681,3.681,0,0,1,0,10.786c.664-3.321,1.327-6.64,2-10" transform="translate(12813.021 1222.659)"/><path d="M27.6,7.021A3.1,3.1,0,0,1,30.7,3.9a3.126,3.126,0,1,1,0,6.251,3.1,3.1,0,0,1-3.1-3.127" transform="translate(12808.248 1222.12)"/><path d="M77.659,34.325H71.4V5.953c0-2.282-.607-3.134-2.795-3.859a2.74,2.74,0,0,1,.328-.138c2.25-.566,4.5-1.118,6.75-1.7a.524.524,0,0,1,.714.33,11.825,11.825,0,0,1,1.14,4.535c.074,1.054.112,2.113.113,3.17q.014,12.747,0,25.493Z" transform="translate(12801.154 1222.756)"/><path d="M160.1,34.382h-6.218v-.675c0-9.574-.014-19.147.015-28.721,0-1.367-.291-2.431-1.752-2.911L160.1.087Z" transform="translate(12786.705 1222.779)"/><path d="M81.009,2.45a9.524,9.524,0,0,1,4.3-2.218c4.517-.964,8.212,1.1,9.843,5.582a14.63,14.63,0,0,1-4.03,15.565A9.934,9.934,0,0,1,82.1,23.639c-.176-.041-.346-.107-.638-.2a1.716,1.716,0,0,1,.224-.114,9.648,9.648,0,0,0,6.744-6.768,14.184,14.184,0,0,0-.142-9.638,6.427,6.427,0,0,0-5.332-4.456,14.348,14.348,0,0,0-1.945-.013" transform="translate(12799.009 1222.794)"/><path d="M130.041,15.855c1.067-.271,2.1-.537,3.142-.8,1.108-.279,2.224-.533,3.324-.841.416-.117.6.009.807.356a10.2,10.2,0,0,1,1.3,5.3c.028,5.562.021,11.124.026,16.686a2.241,2.241,0,0,1-.03.242h-6.228V36.2c0-5.357-.013-10.715.008-16.072a4.1,4.1,0,0,0-2.228-4.1c-.04-.019-.06-.076-.126-.166" transform="translate(12790.528 1220.342)"/><path d="M126.983,35.569a13.135,13.135,0,0,1-1.418,1.22,6.35,6.35,0,0,1-5.437.816,3.819,3.819,0,0,1-2.9-3.663c-.017-.272-.018-.546-.018-.819,0-4.181,0-8.361-.007-12.542a14.145,14.145,0,0,0-.132-1.989,5.709,5.709,0,0,0-2.579-4.379c.039-.047.06-.089.075-.088a12.715,12.715,0,0,1,6.457,2.5,6.174,6.174,0,0,1,2.445,5.064q-.016,5.606,0,11.211a8.2,8.2,0,0,0,.174,1.724,1.3,1.3,0,0,0,1.6,1.145c.553-.047,1.1-.178,1.648-.271l.084.074" transform="translate(12793.217 1220.35)"/><path d="M169.17,19.416a6.743,6.743,0,0,0,1.1,2.751q4.418,7.521,8.848,15.035c.085.145.162.294.281.509-.193.017-.333.041-.472.042-2.116,0-4.232-.007-6.347.009a.677.677,0,0,1-.679-.4q-3.655-6.368-7.338-12.717a.528.528,0,0,1,.091-.78c1.506-1.457,2.989-2.937,4.517-4.447" transform="translate(12784.579 1219.435)"/><path d="M113.371,23.428c-1.1.786-2.2,1.473-3.186,2.3a7.891,7.891,0,0,0-2.769,6.95,4.912,4.912,0,0,0,5.607,4.36c.151-.016.3-.041.455-.061.007.031.025.075.016.082-2.241,1.628-4.651,2.713-7.518,2.35-3.609-.457-5.678-3.3-5.116-6.976a7.453,7.453,0,0,1,2.967-4.959,21.247,21.247,0,0,1,6.467-3.123c1.016-.335,2.048-.619,3.078-.927" transform="translate(12795.591 1218.741)"/><path d="M146.043,20.144a3.062,3.062,0,0,1-3.11-3.117,3.127,3.127,0,1,1,3.11,3.117" transform="translate(12788.298 1220.387)"/><path d="M107.867,20.144a3.055,3.055,0,0,1-3.105-3.119,3.1,3.1,0,0,1,3.134-3.108,3.14,3.14,0,0,1,3.123,3.135,3.1,3.1,0,0,1-3.151,3.091" transform="translate(12794.9 1220.387)"/><path d="M176.208,20.144a3.1,3.1,0,0,1-3.141-3.1,3.131,3.131,0,0,1,6.261-.007,3.068,3.068,0,0,1-3.12,3.109" transform="translate(12783.086 1220.387)"/><path d="M39.313,66.34V58.205h1.523l1.72,4.6c.384,1.022.662,1.824.837,2.36H43.4c.175-.535.511-1.511.825-2.36l1.72-4.6h1.523V66.34H46.438V61.425c0-.245.023-1.2.058-1.86h-.012c-.3.872-.511,1.465-.662,1.86L43.927,66.34H42.858l-1.894-4.916c-.151-.4-.408-1.128-.663-1.86h-.012c.036.662.058,1.615.058,1.86V66.34Z" transform="translate(12806.222 1212.726)"/><rect width="1.058" height="8.135" transform="translate(12856.886 1270.93)"/><path d="M63.519,66.34l-.907-2.429H59.16l-.895,2.429H57.149L60.334,58.2H61.45l3.173,8.136Zm-4.01-3.359h2.755l-.918-2.452c-.163-.43-.349-.964-.466-1.313h-.011c-.14.43-.268.8-.454,1.313Z" transform="translate(12803.137 1212.726)"/><path d="M69.042,66.34V58.205h1.523l1.72,4.6c.384,1.022.662,1.824.837,2.36h.012c.174-.535.511-1.511.825-2.36l1.72-4.6H77.2V66.34H76.167V61.425c0-.245.023-1.2.058-1.86h-.012c-.3.872-.512,1.465-.662,1.86L73.656,66.34H72.587l-1.894-4.916c-.151-.4-.408-1.128-.663-1.86h-.012c.036.662.058,1.615.058,1.86V66.34Z" transform="translate(12801.079 1212.726)"/><rect width="1.058" height="8.135" transform="translate(12881.473 1270.93)"/><path d="M99.089,64.1c0,2.115-1.744,2.243-3.278,2.243H92.9V58.205H95.73c1.407,0,3.045.162,3.045,2.231a1.931,1.931,0,0,1-1.022,1.743A1.813,1.813,0,0,1,99.089,64.1M93.94,59.111v2.627h1.7c1,0,2.116-.012,2.116-1.3,0-1.313-1.116-1.325-2.1-1.325Zm1.872,6.334c1.15,0,2.255,0,2.255-1.348,0-1.453-1.314-1.453-2.2-1.453H93.94v2.8Z" transform="translate(12796.953 1212.726)"/><path d="M103.758,66.34V58.2h5.254v.941H104.8v2.615h3.777V62.7H104.8v2.7h4.208v.941Z" transform="translate(12795.074 1212.726)"/><path d="M119.071,66.34l-.906-2.429h-3.452l-.895,2.429H112.7l3.185-8.136H117l3.172,8.136Zm-4.01-3.359h2.755l-.918-2.452c-.163-.43-.349-.964-.466-1.313h-.011c-.14.43-.268.8-.453,1.313Z" transform="translate(12793.527 1212.726)"/><path d="M123.674,62.244c0-2.464,1.359-4.207,3.858-4.207a3.413,3.413,0,0,1,3.522,2.545L129.9,60.8a2.355,2.355,0,0,0-2.348-1.859,2.465,2.465,0,0,0-2.115.918,4.046,4.046,0,0,0-.581,2.383,4.088,4.088,0,0,0,.581,2.394,2.447,2.447,0,0,0,2.092.906,2.408,2.408,0,0,0,2.394-1.72l1.2.314a3.679,3.679,0,0,1-3.592,2.312c-2.464,0-3.858-1.5-3.858-4.207" transform="translate(12791.629 1212.755)"/><path d="M135.725,66.34V58.2h1.057v3.556h4.08V58.2h1.058V66.34h-1.058V62.7h-4.08V66.34Z" transform="translate(12789.545 1212.726)"/></g></svg>